<?xml version="1.0"?>
<svg xmlns="http://www.w3.org/2000/svg" height="512px" viewBox="0 -4 480.00708 480" width="512px"><g><path d="m128.007812 144.003906c26.507813 0 48-21.492187 48-48 0-26.511718-21.492187-48-48-48-26.511718 0-48 21.488282-48 48 .027344 26.5 21.5 47.972656 48 48zm0-80c17.671876 0 32 14.328125 32 32s-14.328124 32-32 32c-17.675781 0-32-14.328125-32-32s14.324219-32 32-32zm0 0" data-original="#000000" class="active-path" data-old_color="#ffffff" fill="#ffffff"/><path d="m303.015625 140.148438c-1.378906-2.503907-3.984375-4.078126-6.839844-4.140626-2.855469-.058593-5.527343 1.410157-7.007812 3.851563l-97.160157 160.574219-41.519531-57.125c-1.535156-2.1875-4.078125-3.433594-6.746093-3.304688-2.652344.097656-5.085938 1.496094-6.511719 3.734375l-136 216c-1.554688 2.46875-1.640625 5.582031-.234375 8.132813 1.410156 2.550781 4.097656 4.136718 7.011718 4.132812h464c2.828126 0 5.445313-1.496094 6.882813-3.929687 1.441406-2.433594 1.488281-5.449219.125-7.925781zm-7.335937 19.855468 29.503906 53.601563-25.601563-12.800781c-3.078125-1.539063-6.796875-.933594-9.230469 1.503906l-11.359374 11.359375-11.28125-7.511719zm-151.199219 102.261719 20.367187 28.058594-7.054687 10.589843-26.539063-17.648437zm-21.753907 34.539063 32.847657 21.855468c3.675781 2.445313 8.640625 1.449219 11.089843-2.226562l8.207032-12.308594 11.199218 15.40625c.125.179688.261719.351562.410157.511719l31.429687 37.121093 12.207032-10.335937-27.710938-32.730469 57.03125-94.207031 16.144531 10.769531c3.175781 2.117188 7.402344 1.695313 10.097657-1l11.917968-11.921875 41.175782 20.585938 111.546874 202.847656-142.105468-88c-2.820313-1.746094-6.425782-1.566406-9.0625.449219l-133.855469 102.382812h-142.792969zm130.191407 112.335937 32.464843 6.496094 15.046876 7.527343c1.113281.550782 2.335937.835938 3.578124.839844 2.121094 0 4.15625-.84375 5.65625-2.34375l30.109376-30.105468 104.113281 64.449218h-252.246094zm16.929687-12.945313 34.640625-26.488281 21.3125 13.199219-23.394531 23.359375-10.847656-5.421875c-.632813-.3125-1.304688-.542969-2-.679688zm0 0" data-original="#000000" class="active-path" data-old_color="#ffffff" fill="#ffffff"/><path d="m120.007812.00390625h16v31.99999975h-16zm0 0" data-original="#000000" class="active-path" data-old_color="#ffffff" fill="#ffffff"/><path d="m54.46875 33.777344 11.3125-11.3125 22.625 22.628906-11.3125 11.3125zm0 0" data-original="#000000" class="active-path" data-old_color="#ffffff" fill="#ffffff"/><path d="m32.007812 88.003906h32v16h-32zm0 0" data-original="#000000" class="active-path" data-old_color="#ffffff" fill="#ffffff"/><path d="m54.464844 158.226562 22.628906-22.628906 11.3125 11.3125-22.628906 22.628906zm0 0" data-original="#000000" class="active-path" data-old_color="#ffffff" fill="#ffffff"/><path d="m120.007812 160.003906h16v32h-16zm0 0" data-original="#000000" class="active-path" data-old_color="#ffffff" fill="#ffffff"/><path d="m167.601562 146.917969 11.316407-11.3125 22.625 22.628906-11.316407 11.3125zm0 0" data-original="#000000" class="active-path" data-old_color="#ffffff" fill="#ffffff"/><path d="m192.007812 88.003906h32v16h-32zm0 0" data-original="#000000" class="active-path" data-old_color="#ffffff" fill="#ffffff"/><path d="m167.609375 45.089844 22.625-22.625 11.316406 11.3125-22.628906 22.628906zm0 0" data-original="#000000" class="active-path" data-old_color="#ffffff" fill="#ffffff"/><path d="m392.007812 232.003906h56c17.671876 0 32-14.328125 32-32s-14.328124-32-32-32c-3.175781 0-6.328124.488282-9.351562 1.449219-5.976562-6.0625-14.136719-9.464844-22.648438-9.449219-15.015624.019532-28.007812 10.460938-31.257812 25.121094-11.289062 3.574219-18.28125 14.847656-16.46875 26.550781 1.808594 11.699219 11.882812 20.332031 23.726562 20.328125zm0-32c4.417969 0 8-3.582031 8-8-.019531-7.121094 4.6875-13.394531 11.527344-15.371094 6.84375-1.976562 14.167969.816407 17.953125 6.851563 2.28125 3.59375 6.980469 4.773437 10.6875 2.679687 2.378907-1.386718 5.078125-2.132812 7.832031-2.160156 8.835938 0 16 7.164063 16 16 0 8.835938-7.164062 16-16 16h-56c-4.417968 0-8-3.582031-8-8 0-4.417968 3.582032-8 8-8zm0 0" data-original="#000000" class="active-path" data-old_color="#ffffff" fill="#ffffff"/></g> </svg>
