<?xml version="1.0"?>
<svg xmlns="http://www.w3.org/2000/svg" height="512px" viewBox="0 -12 448.13664 448" width="512px"><g><path d="m163.882812 260.1875c-37.488281-37.492188-98.273437-37.492188-135.765624-.003906-37.488282 37.492187-37.488282 98.277344 0 135.769531 37.492187 37.488281 98.277343 37.488281 135.765624-.003906 18.085938-17.960938 28.253907-42.394531 28.253907-67.882813 0-25.484375-10.167969-49.917968-28.253907-67.878906zm-5.65625 16.96875-113.132812 113.136719c-2.011719 2.078125-4.984375 2.914062-7.78125 2.179687-2.796875-.730468-4.980469-2.914062-5.714844-5.710937-.730468-2.796875.101563-5.773438 2.183594-7.78125l113.136719-113.136719c3.136719-3.03125 8.128906-2.988281 11.214843.097656 3.085938 3.085938 3.128907 8.074219.09375 11.214844zm0 0" data-original="#000000" class="active-path" data-old_color="#000000" fill="#FFFFFF"/><path d="m419.882812 260.1875c-37.488281-37.492188-98.273437-37.492188-135.765624-.003906-37.488282 37.492187-37.488282 98.277344 0 135.769531 37.492187 37.488281 98.277343 37.488281 135.765624-.003906 18.085938-17.960938 28.253907-42.394531 28.253907-67.882813 0-25.484375-10.167969-49.917968-28.253907-67.878906zm-5.65625 16.96875-113.132812 113.136719c-3.140625 3.03125-8.128906 2.988281-11.214844-.097657-3.085937-3.085937-3.128906-8.074218-.097656-11.214843l113.136719-113.136719c3.136719-3.03125 8.128906-2.988281 11.214843.097656 3.085938 3.085938 3.128907 8.074219.09375 11.214844zm0 0" data-original="#000000" class="active-path" data-old_color="#000000" fill="#FFFFFF"/><path d="m291.882812 28.1875c-37.488281-37.492188-98.273437-37.492188-135.765624-.003906-37.488282 37.492187-37.488282 98.277344 0 135.769531 37.492187 37.488281 98.277343 37.488281 135.765624-.003906 18.085938-17.960938 28.253907-42.394531 28.253907-67.882813 0-25.484375-10.167969-49.917968-28.253907-67.878906zm-5.65625 130.105469c-3.121093 3.121093-8.1875 3.121093-11.308593 0l-113.136719-113.136719c-3.03125-3.140625-2.988281-8.128906.097656-11.214844 3.085938-3.085937 8.074219-3.128906 11.214844-.097656l113.132812 113.136719c3.125 3.125 3.125 8.1875 0 11.3125zm0 0" data-original="#000000" class="active-path" data-old_color="#000000" fill="#FFFFFF"/></g> </svg>
