<?xml version="1.0"?>
<svg xmlns="http://www.w3.org/2000/svg" height="512px" viewBox="0 0 416 416.35587" width="512px"><g><path d="m65.53125 306.445312c-9.488281 9.398438-11.628906 23.933594-5.253906 35.667969l-57.171875 57.171875c-3.902344 3.902344-3.902344 10.234375 0 14.140625 3.90625 3.90625 10.238281 3.90625 14.144531 0l57.167969-57.167969c4.398437 2.398438 9.332031 3.652344 14.34375 3.640626h.082031c7.988281.003906 15.640625-3.203126 21.242188-8.898438l6.390624-6.453125-44.492187-44.492187zm0 0" data-original="#000000" class="active-path" data-old_color="#FDFBFB" fill="#FFFFFF"/><path d="m305.742188 2.929688c-3.90625-3.90625-10.238282-3.90625-14.144532 0s-3.90625 10.238281 0 14.140624l34.101563 34.101563-36.894531 36.890625-46.640626-46.640625c-3.90625-3.90625-10.238281-3.90625-14.144531 0-3.902343 3.90625-3.902343 10.238281 0 14.144531l28.265625 28.261719-171.980468 171.980469c-7.8125 7.8125-7.8125 20.472656 0 28.285156l48.136718 48.136719c7.816406 7.796875 20.46875 7.796875 28.285156 0l17.382813-17.382813-26.253906-26.609375c-2.535157-2.535156-3.519531-6.238281-2.578125-9.703125.945312-3.460937 3.671875-6.152344 7.148437-7.050781 3.472657-.894531 7.164063.136719 9.667969 2.707031l26.164062 26.511719 24.859376-24.863281-36.046876-35.675782c-3.921874-3.882812-3.957031-10.214843-.070312-14.140624 3.882812-3.925782 10.214844-3.957032 14.140625-.074219l36.117187 35.75 24.53125-24.53125-26.167968-26.167969c-3.90625-3.90625-3.90625-10.238281 0-14.140625 3.90625-3.90625 10.238281-3.90625 14.144531-.003906l26.164063 26.167969 17.648437-17.644532-35.902344-35.902344c-3.90625-3.902343-3.90625-10.234374 0-14.140624s10.238281-3.90625 14.140625 0l35.902344 35.898437 30.988281-30.988281 28.261719 28.265625c3.90625 3.902343 10.238281 3.902343 14.144531-.003907 3.902344-3.902343 3.902344-10.234374-.003906-14.140624l-43.429687-43.429688 36.734374-37.050781 31.042969 31.046875c3.90625 3.902344 10.238281 3.902344 14.140625-.003906 3.90625-3.902344 3.90625-10.234376 0-14.140626zm0 0" data-original="#000000" class="active-path" data-old_color="#FDFBFB" fill="#FFFFFF"/></g> </svg>
